<svg xmlns="http://www.w3.org/2000/svg" xmlns:cc="http://web.resource.org/cc/" xmlns:svg="http://www.w3.org/2000/svg" xmlns:xlink="http://www.w3.org/1999/xlink" id="svg4289" width="512" height="512" viewBox="0 0 48 48"><defs id="defs4291"><linearGradient id="linearGradient6998"><stop style="stop-color:#000;stop-opacity:1" id="stop7000" offset="0"/><stop style="stop-color:#000;stop-opacity:0" id="stop7002" offset="1"/></linearGradient><linearGradient id="linearGradient5443"><stop style="stop-color:#fff;stop-opacity:1" id="stop5445" offset="0"/><stop style="stop-color:#fff;stop-opacity:0" id="stop5447" offset="1"/></linearGradient><linearGradient id="linearGradient5437"><stop style="stop-color:#2e3436;stop-opacity:1" id="stop5439" offset="0"/><stop style="stop-color:#729fcf;stop-opacity:1" id="stop5441" offset="1"/></linearGradient><linearGradient id="linearGradient6791"><stop id="stop6793" offset="0" style="stop-color:#fff;stop-opacity:1"/><stop id="stop6795" offset="1" style="stop-color:#fff;stop-opacity:0"/></linearGradient><linearGradient id="linearGradient6707"><stop id="stop6709" offset="0" style="stop-color:#888a85;stop-opacity:1"/><stop id="stop6711" offset="1" style="stop-color:#555753;stop-opacity:1"/></linearGradient><linearGradient id="linearGradient6696"><stop style="stop-color:#fff;stop-opacity:1" id="stop6698" offset="0"/><stop style="stop-color:#fff;stop-opacity:0" id="stop6700" offset="1"/></linearGradient><linearGradient id="linearGradient6576"><stop style="stop-color:#fff;stop-opacity:1" id="stop6578" offset="0"/><stop style="stop-color:#fff;stop-opacity:0" id="stop6580" offset="1"/></linearGradient><linearGradient id="linearGradient6545"><stop style="stop-color:#d3d7cf;stop-opacity:1" id="stop6547" offset="0"/><stop style="stop-color:#eeeeec;stop-opacity:1" id="stop6549" offset="1"/></linearGradient><linearGradient id="linearGradient6525"><stop style="stop-color:#fff;stop-opacity:1" id="stop6527" offset="0"/><stop style="stop-color:#babdb6;stop-opacity:1" id="stop6529" offset="1"/></linearGradient><linearGradient id="linearGradient6424"><stop style="stop-color:#eeeeec;stop-opacity:1" id="stop6426" offset="0"/><stop style="stop-color:#eeeeec;stop-opacity:0" id="stop6428" offset="1"/></linearGradient><linearGradient id="linearGradient5440"><stop id="stop5442" offset="0" style="stop-color:#eeeeec;stop-opacity:1"/><stop id="stop5444" offset="1" style="stop-color:#a2a298;stop-opacity:1"/></linearGradient><linearGradient id="linearGradient5402"><stop style="stop-color:#000;stop-opacity:1" id="stop5404" offset="0"/><stop style="stop-color:#000;stop-opacity:0" id="stop5406" offset="1"/></linearGradient><linearGradient id="linearGradient2808"><stop id="stop2810" offset="0" style="stop-color:white;stop-opacity:1"/><stop id="stop2812" offset="1" style="stop-color:white;stop-opacity:.2937853"/></linearGradient><linearGradient id="linearGradient6221"><stop style="stop-color:black;stop-opacity:1" id="stop6223" offset="0"/><stop style="stop-color:black;stop-opacity:0" id="stop6225" offset="1"/></linearGradient><linearGradient id="linearGradient5220"><stop style="stop-color:#0c1d35;stop-opacity:1" id="stop5222" offset="0"/><stop style="stop-color:white;stop-opacity:.2937853" id="stop5224" offset="1"/></linearGradient><linearGradient id="linearGradient5210"><stop style="stop-color:#729fcf;stop-opacity:1" id="stop5212" offset="0"/><stop style="stop-color:#295ead;stop-opacity:1" id="stop5214" offset="1"/></linearGradient><radialGradient id="radialGradient6819" cx="21.96" cy="34.498" r="12.728" fx="21.96" fy="34.498" gradientTransform="matrix(0.982963,0,0,0.508943,0.37414,16.84139)" gradientUnits="userSpaceOnUse" xlink:href="#linearGradient6221"/><radialGradient id="radialGradient6821" cx="21.96" cy="34.498" r="12.728" fx="21.96" fy="34.498" gradientTransform="matrix(0.982963,0,0,0.508943,0.37414,16.84139)" gradientUnits="userSpaceOnUse" xlink:href="#linearGradient6221"/><linearGradient id="linearGradient6823" x1="101.75" x2="84.875" y1="16.75" y2="23.5" gradientUnits="userSpaceOnUse" xlink:href="#linearGradient6545"/><linearGradient id="linearGradient6825" x1="101.761" x2="84.311" y1="23.366" y2="40.944" gradientUnits="userSpaceOnUse" xlink:href="#linearGradient6707"/><linearGradient id="linearGradient6827" x1="99.686" x2="75.04" y1="7.615" y2="16.261" gradientUnits="userSpaceOnUse" xlink:href="#linearGradient6791"/><linearGradient id="linearGradient6829" x1="94" x2="94" y1="43.241" y2="40.766" gradientUnits="userSpaceOnUse" xlink:href="#linearGradient6525"/><linearGradient id="linearGradient6831" x1="-5.761" x2="-12.692" y1="40.213" y2="44.515" gradientTransform="matrix(0.9982232,0,0,1.1271997,101.97505,-16.992011)" gradientUnits="userSpaceOnUse" xlink:href="#linearGradient5437"/><linearGradient id="linearGradient6833" x1="93.686" x2="96.311" y1="11.615" y2="3.24" gradientTransform="matrix(0.7071068,-0.7071068,0.7071068,0.7071068,-58.460697,73.506628)" gradientUnits="userSpaceOnUse" xlink:href="#linearGradient6576"/><linearGradient id="linearGradient6835" x1="19.5" x2="19.5" y1="17.751" y2="7.809" gradientTransform="translate(-1,-1)" gradientUnits="userSpaceOnUse" xlink:href="#linearGradient6696"/><radialGradient id="radialGradient6837" cx="21.96" cy="34.498" r="12.728" fx="21.96" fy="34.498" gradientTransform="matrix(0.982963,0,0,0.508943,0.37414,16.84139)" gradientUnits="userSpaceOnUse" xlink:href="#linearGradient6221"/><radialGradient id="radialGradient6839" cx="21.96" cy="34.498" r="12.728" fx="21.96" fy="34.498" gradientTransform="matrix(0.982963,0,0,0.508943,0.37414,16.84139)" gradientUnits="userSpaceOnUse" xlink:href="#linearGradient6221"/><radialGradient id="radialGradient7004" cx="24.326" cy="24.578" r="5.141" fx="24.326" fy="24.578" gradientTransform="matrix(0.7495432,-0.7495432,1.8567518,1.8567518,-40.477603,-2.5737503)" gradientUnits="userSpaceOnUse" xlink:href="#linearGradient6998"/><linearGradient id="linearGradient7047" x1="-10.695" x2="-1.049" y1="41.106" y2="41.138" gradientTransform="matrix(0.8213511,0,0,1.0094537,61.676283,-5.2539543)" gradientUnits="userSpaceOnUse" xlink:href="#linearGradient5210"/><linearGradient id="linearGradient7049" x1="53.589" x2="69.976" y1="32.857" y2="44.96" gradientUnits="userSpaceOnUse" xlink:href="#linearGradient5443"/><linearGradient id="linearGradient7051" x1="24.518" x2="25.911" y1="22.429" y2="23.831" gradientTransform="matrix(0.7118239,-0.7118239,0.7071068,0.7071068,20.979979,22.298119)" gradientUnits="userSpaceOnUse" xlink:href="#linearGradient5440"/><linearGradient id="linearGradient7053" x1="-6.979" x2="-9.904" y1="37.127" y2="36.848" gradientTransform="matrix(0.581783,0,0,0.6787466,57.543659,10.506054)" gradientUnits="userSpaceOnUse" xlink:href="#linearGradient2808"/><linearGradient id="linearGradient7055" x1="-8.938" x2="-7" y1="40.375" y2="40.375" gradientTransform="matrix(0.4887947,0,0,0.6787448,59.055567,10.472634)" gradientUnits="userSpaceOnUse" xlink:href="#linearGradient5220"/><linearGradient id="linearGradient7057" x1="57.349" x2="59.35" y1="37.497" y2="37.506" gradientUnits="userSpaceOnUse" xlink:href="#linearGradient5402"/><linearGradient id="linearGradient7059" x1="54.5" x2="54.5" y1="1.734" y2="7.193" gradientUnits="userSpaceOnUse" xlink:href="#linearGradient6424"/></defs><metadata id="metadata4294"/><g id="layer1"><path style="opacity:.15;fill:url(#radialGradient6839);fill-opacity:1;stroke:none;stroke-width:1;stroke-linecap:round;stroke-linejoin:round;stroke-miterlimit:4;stroke-dasharray:none;stroke-opacity:1" id="path5331" d="M 34.471457 34.299805 A 12.727922 6.3639612 0 1 1 9.0156116,34.299805 A 12.727922 6.3639612 0 1 1 34.471457 34.299805 z" transform="matrix(0.9035244,0,0,0.6241817,-8.1457785,20.562958)"/><path style="opacity:.2;fill:url(#radialGradient6837);fill-opacity:1;stroke:none;stroke-width:1;stroke-linecap:round;stroke-linejoin:round;stroke-miterlimit:4;stroke-dasharray:none;stroke-opacity:1" id="path6769" d="M 34.471457 34.299805 A 12.727922 6.3639612 0 1 1 9.0156116,34.299805 A 12.727922 6.3639612 0 1 1 34.471457 34.299805 z" transform="matrix(0.3535525,0,0,0.2357023,2.8125306,34.415459)"/><g id="g6432" transform="matrix(0.7071068,0.7071068,-0.7071068,0.7071068,0.4039197,-30.117395)"><rect id="rect5288" width="8.997" height="17.997" x="50.588" y="27.727" rx="4.074" ry="3.659" transform="matrix(0.9999917,-4.085772e-3,-2.7048962e-3,0.9999963,0,0)" style="fill:url(#linearGradient7047);fill-opacity:1;stroke:#204a87;stroke-width:1.0000124;stroke-linecap:round;stroke-linejoin:round;stroke-miterlimit:4;stroke-dasharray:none;stroke-opacity:1"/><rect id="rect5292" width="7.018" height="15.96" x="51.574" y="28.816" rx="3.08" ry="2.597" transform="matrix(0.9999873,-5.0480452e-3,-2.8992949e-3,0.9999958,0,0)" style="opacity:.5;fill:none;fill-opacity:1;stroke:url(#linearGradient7049);stroke-width:1.00001645;stroke-linecap:round;stroke-linejoin:round;stroke-miterlimit:4;stroke-dasharray:none;stroke-opacity:1"/><path id="path5286" d="M 52.246834,0.49999993 L 52.604531,5.4548034 L 53.59322,7.162543 L 53.585977,28.755101 C 53.674365,30.257703 56.419206,30.336084 56.595983,28.745094 L 56.621068,7.1748733 L 57.628707,5.8770552 L 57.95997,0.51454306 C 57.95997,0.51454306 52.246834,0.49999993 52.246834,0.49999993 z" style="fill:url(#linearGradient7051);fill-opacity:1;stroke:#888a85;stroke-width:1.00000024;stroke-linecap:round;stroke-linejoin:round;stroke-miterlimit:4;stroke-dasharray:none;stroke-opacity:1"/><rect style="opacity:.3;fill:url(#linearGradient7053);fill-opacity:1;stroke:none;stroke-width:1;stroke-linecap:round;stroke-linejoin:round;stroke-miterlimit:4;stroke-dasharray:none;stroke-opacity:1" id="rect2804" width="1.42" height="10.613" x="51.726" y="32.226" rx=".666" ry="1.604" transform="matrix(0.9999908,-4.299452e-3,-4.299452e-3,0.9999908,0,0)"/><rect id="rect5290" width="1.955" height="10.86" x="54.168" y="32.192" rx="1.347" ry="1.604" transform="matrix(0.9999869,-5.11738e-3,-3.6122511e-3,0.9999935,0,0)" style="opacity:.3;fill:url(#linearGradient7055);fill-opacity:1;stroke:none;stroke-width:1;stroke-linecap:round;stroke-linejoin:round;stroke-miterlimit:4;stroke-dasharray:none;stroke-opacity:1"/><rect style="opacity:.25;fill:url(#linearGradient7057);fill-opacity:1;stroke:none;stroke-width:1;stroke-linecap:round;stroke-linejoin:round;stroke-miterlimit:4;stroke-dasharray:none;stroke-opacity:1" id="rect5398" width="1.42" height="10.613" x="57.132" y="32.249" rx=".666" ry="1.604" transform="matrix(0.9999908,-4.2994573e-3,-4.2994573e-3,0.9999908,0,0)"/><path id="path5450" d="M 52.78125,1 L 53.09375,5.3125 L 54.03125,6.90625 C 54.073567,6.982692 54.095116,7.0688875 54.09375,7.15625 L 56.125,7.1875 C 56.120433,7.0757816 56.153441,6.9657558 56.21875,6.875 L 57.125,5.65625 L 57.4375,1 C 56.652768,1 53.565982,1 52.78125,1 z" style="fill:url(#linearGradient7059);fill-opacity:1;stroke:none;stroke-width:1.00000024;stroke-linecap:round;stroke-linejoin:round;stroke-miterlimit:4;stroke-opacity:1"/></g><path style="opacity:.5;fill:url(#radialGradient7004);fill-opacity:1;stroke:none;stroke-width:1.00000024;stroke-linecap:round;stroke-linejoin:round;stroke-miterlimit:4;stroke-dasharray:none;stroke-opacity:1" id="path6010" d="M 25.96875,19.46875 L 18.46875,26.96875 L 21.25,29.75 L 28.75,22.25 L 25.96875,19.46875 z"/><g id="g6807" transform="translate(-1,0)"><path id="path6765" d="M 34.471457 34.299805 A 12.727922 6.3639612 0 1 1 9.0156116,34.299805 A 12.727922 6.3639612 0 1 1 34.471457 34.299805 z" transform="matrix(0.8642397,0,0,0.6241817,18.208399,20.562958)" style="opacity:.15;fill:url(#radialGradient6819);fill-opacity:1;stroke:none;stroke-width:1;stroke-linecap:round;stroke-linejoin:round;stroke-miterlimit:4;stroke-dasharray:none;stroke-opacity:1"/><path id="path6773" d="M 34.471457 34.299805 A 12.727922 6.3639612 0 1 1 9.0156116,34.299805 A 12.727922 6.3639612 0 1 1 34.471457 34.299805 z" transform="matrix(0.3535525,0,0,0.2357023,29.812531,34.415459)" style="opacity:.2;fill:url(#radialGradient6821);fill-opacity:1;stroke:none;stroke-width:1;stroke-linecap:round;stroke-linejoin:round;stroke-miterlimit:4;stroke-dasharray:none;stroke-opacity:1"/><g id="g6739" transform="translate(-1.697983,0.2707704)"><g id="g6553" transform="matrix(0.7071068,-0.7071068,0.7071068,0.7071068,-57.460697,74.506628)"><path id="path6491" d="M 91,1.1482865 C 88.356663,2.3083638 86.5,4.9532014 86.5,8.0232865 C 86.5,10.894407 88.12854,13.387995 90.5,14.648286 L 90.5,43.414214 C 90.5,45.353214 92.061,46.914213 94,46.914214 C 95.939,46.914214 97.5,45.353213 97.5,43.414214 L 97.5,14.648286 C 99.87146,13.387995 101.5,10.894407 101.5,8.0232865 C 101.5,4.9532011 99.643337,2.3083637 97,1.1482865 L 97,7.0857865 L 95.28125,9.0857865 L 92.71875,9.0857865 L 91,7.0857865 L 91,1.1482865 z" style="opacity:1;fill:url(#linearGradient6823);fill-opacity:1;stroke:url(#linearGradient6825);stroke-width:.99999994;stroke-linecap:round;stroke-linejoin:round;stroke-miterlimit:4;stroke-dasharray:none;stroke-dashoffset:.7;stroke-opacity:1"/><path id="path6505" d="M 89.96875,2.9920365 C 88.491165,4.1803215 87.53125,5.9777353 87.53125,8.0232865 C 87.53125,10.510038 88.917637,12.651991 90.96875,13.742036 C 91.312399,13.913596 91.530012,14.264195 91.53125,14.648286 L 91.53125,43.414214 C 91.53125,44.807674 92.606539,45.882963 94,45.882964 C 95.39346,45.882964 96.46875,44.807673 96.46875,43.414214 L 96.46875,14.648286 C 96.469988,14.264195 96.687601,13.913596 97.03125,13.742036 C 99.082363,12.651991 100.46875,10.510038 100.46875,8.0232865 C 100.46875,5.977735 99.508835,4.1803214 98.03125,2.9920365 L 98.03125,7.0857865 C 98.028519,7.3272888 97.939894,7.5599296 97.78125,7.7420365 L 96.0625,9.7420365 C 95.871073,9.9773335 95.584572,10.114853 95.28125,10.117036 L 92.71875,10.117036 C 92.415428,10.114853 92.128927,9.9773335 91.9375,9.7420365 L 90.21875,7.7420365 C 90.060106,7.5599296 89.971481,7.3272888 89.96875,7.0857865 L 89.96875,2.9920365 z" style="opacity:1;fill:none;fill-opacity:1;stroke:url(#linearGradient6827);stroke-width:.99999994;stroke-linecap:round;stroke-linejoin:miter;stroke-miterlimit:4;stroke-dashoffset:.7;stroke-opacity:1"/><path id="path6507" d="M 95.5 42.5 A 1.5 1.5 0 1 1 92.5,42.5 A 1.5 1.5 0 1 1 95.5 42.5 z" transform="translate(-3.7626907e-8,0.9142136)" style="opacity:1;fill:#888a85;fill-opacity:1;stroke:url(#linearGradient6829);stroke-width:1;stroke-linecap:round;stroke-linejoin:miter;stroke-miterlimit:4;stroke-dasharray:none;stroke-dashoffset:.7;stroke-opacity:1"/><rect style="opacity:.23106061;fill:url(#linearGradient6831);fill-opacity:1;stroke:none;stroke-width:1;stroke-linecap:round;stroke-linejoin:round;stroke-miterlimit:4;stroke-dasharray:none;stroke-opacity:1;display:inline" id="rect6533" width="3.993" height="22" x="91.993" y="16.964" rx="1.738" ry="1.744" transform="matrix(0.9999999,3.8645919e-4,3.8358553e-4,0.9999999,0,0)"/></g><path style="fill:none;fill-opacity:1;stroke:url(#linearGradient6833);stroke-width:.99999994;stroke-linecap:round;stroke-linejoin:miter;stroke-miterlimit:4;stroke-dashoffset:.7;stroke-opacity:1" id="path6573" d="M 13.973556,7.3037539 L 16.868274,10.198472 C 17.037111,10.371171 17.138946,10.598341 17.155536,10.839288 L 17.35441,13.468841 C 17.385431,13.770581 17.280086,14.070409 17.067148,14.286434 L 15.255187,16.098395 C 15.039162,16.311332 14.739334,16.416678 14.437595,16.385657 L 11.808041,16.186783 C 11.567094,16.170192 11.339925,16.068358 11.167226,15.899521 L 8.2725073,13.004802"/><path style="opacity:.59051723;fill:url(#linearGradient6835);fill-opacity:1;stroke:none;stroke-width:.99999994;stroke-linecap:round;stroke-linejoin:round;stroke-miterlimit:4;stroke-dasharray:none;stroke-dashoffset:.7;stroke-opacity:1" id="path6651" d="M 14.71875,6.8125 C 14.129935,6.8140249 13.543329,6.8880281 12.96875,7.03125 L 16.5,10.5625 C 16.589624,10.650873 16.646088,10.749545 16.65625,10.875 L 16.875,13.5 C 16.888638,13.656013 16.830347,13.827626 16.71875,13.9375 L 15.125,15.5625 C 17.279079,16.073694 19.038866,17.020591 21.34375,15.78125 C 22.074648,13.392376 21.483569,10.671069 19.59375,8.78125 C 18.245921,7.4334204 16.485196,6.8079254 14.71875,6.8125 z M 8,12 C 7.6061401,13.580092 7.7314214,15.26324 8.4375,16.75 C 9.564272,16.068398 10.560695,15.675078 11.46875,15.46875 L 8,12 z"/></g></g></g></svg>