<svg xmlns="http://www.w3.org/2000/svg" xmlns:cc="http://web.resource.org/cc/" xmlns:svg="http://www.w3.org/2000/svg" xmlns:xlink="http://www.w3.org/1999/xlink" id="svg7854" width="512" height="512" version="1.0" viewBox="9 9 30 30"><defs id="defs7856"><linearGradient id="linearGradient7577"><stop style="stop-color:#000;stop-opacity:.3137255" id="stop7579" offset="0"/><stop style="stop-color:#fff;stop-opacity:1" id="stop7581" offset="1"/></linearGradient><linearGradient id="linearGradient5167"><stop id="stop5169" offset="0" style="stop-color:#ef2929;stop-opacity:1"/><stop id="stop5171" offset="1" style="stop-color:#c60e0e;stop-opacity:1"/></linearGradient><linearGradient id="linearGradient5184"><stop id="stop5186" offset="0" style="stop-color:white;stop-opacity:1"/><stop id="stop5188" offset="1" style="stop-color:white;stop-opacity:0"/></linearGradient><linearGradient id="linearGradient5172"><stop id="stop5174" offset="0" style="stop-color:white;stop-opacity:1"/><stop id="stop5176" offset="1" style="stop-color:white;stop-opacity:0"/></linearGradient><linearGradient id="linearGradient8317" x1="15.012" x2="16.658" y1="10.884" y2="17.024" gradientUnits="userSpaceOnUse" xlink:href="#linearGradient7577"/><radialGradient id="radialGradient8319" cx="15.866" cy="20.411" r="7.59" fx="15.866" fy="20.411" gradientUnits="userSpaceOnUse" xlink:href="#linearGradient5167"/><radialGradient id="radialGradient8321" cx="14.057" cy="11.309" r="5.969" fx="14.057" fy="11.309" gradientTransform="matrix(-4.2002315,0.5953403,0.2958442,2.0989386,-274.68882,-18.732928)" gradientUnits="userSpaceOnUse" xlink:href="#linearGradient5184"/><linearGradient id="linearGradient8323" x1="8.932" x2="13.459" y1="2.018" y2="26.432" gradientUnits="userSpaceOnUse" xlink:href="#linearGradient5172"/></defs><metadata id="metadata7859"/><g id="layer1"><g id="g7170" transform="translate(350,0)"><path style="opacity:.4;color:#000;fill:url(#linearGradient8317);fill-opacity:1;fill-rule:nonzero;stroke:none;stroke-width:.52702755;stroke-linecap:butt;stroke-linejoin:miter;marker:none;marker-start:none;marker-mid:none;marker-end:none;stroke-miterlimit:4;stroke-dasharray:none;stroke-dashoffset:0;stroke-opacity:1;visibility:visible;display:inline;overflow:visible" id="path7691" d="M 22.98097 16.134291 A 7.115262 7.115262 0 1 1 8.7504463,16.134291 A 7.115262 7.115262 0 1 1 22.98097 16.134291 z" transform="matrix(2.1074616,0,0,2.1078593,-359.43551,-10.006786)"/><g id="g7564"><path style="color:#000;fill:url(#radialGradient8319);fill-opacity:1;fill-rule:nonzero;stroke:#a40000;stroke-width:.52702755;stroke-linecap:butt;stroke-linejoin:miter;marker:none;marker-start:none;marker-mid:none;marker-end:none;stroke-miterlimit:4;stroke-dasharray:none;stroke-dashoffset:0;stroke-opacity:1;visibility:visible;display:inline;overflow:visible" id="path7968" d="M 22.98097 16.134291 A 7.115262 7.115262 0 1 1 8.7504463,16.134291 A 7.115262 7.115262 0 1 1 22.98097 16.134291 z" transform="matrix(1.897257,0,0,1.897615,-356.10046,-6.6146433)"/><path style="opacity:.64044949;color:#000;fill:url(#radialGradient8321);fill-opacity:1;fill-rule:nonzero;stroke:none;stroke-width:1.09465754;stroke-linecap:butt;stroke-linejoin:miter;marker:none;marker-start:none;marker-mid:none;marker-end:none;stroke-miterlimit:4;stroke-dasharray:none;stroke-dashoffset:0;stroke-opacity:1;visibility:visible;display:inline;overflow:visible" id="path7970" d="M -324.6139,13.485003 C -329.68021,12.724926 -334.54817,15.857848 -336,20.764516 C -334.81129,23.944906 -332.09189,26.474446 -328.53323,27.241756 C -323.23864,28.383358 -318.03208,25.214213 -316.51818,20.097861 C -317.70687,16.917448 -320.4263,14.387909 -323.98493,13.620622 C -324.20193,13.573837 -324.39741,13.51747 -324.6139,13.485003 z"/><path id="path7972" d="M 22.98097 16.134291 A 7.115262 7.115262 0 1 1 8.7504463,16.134291 A 7.115262 7.115262 0 1 1 22.98097 16.134291 z" transform="matrix(1.7591324,0,0,1.7580929,-353.90899,-4.3562887)" style="opacity:.54494413;color:#000;fill:none;fill-opacity:1;fill-rule:nonzero;stroke:url(#linearGradient8323);stroke-width:.56863129;stroke-linecap:butt;stroke-linejoin:miter;marker:none;marker-start:none;marker-mid:none;marker-end:none;stroke-miterlimit:4;stroke-dasharray:none;stroke-dashoffset:0;stroke-opacity:1;visibility:visible;display:inline;overflow:visible"/></g></g></g></svg>