<svg xmlns="http://www.w3.org/2000/svg" xmlns:cc="http://web.resource.org/cc/" xmlns:svg="http://www.w3.org/2000/svg" xmlns:xlink="http://www.w3.org/1999/xlink" id="svg11300" width="512" height="512" version="1.0" viewBox="0 0 48 48"><defs id="defs3"><linearGradient id="linearGradient5335"><stop style="stop-color:#fff;stop-opacity:1" id="stop5337" offset="0"/><stop style="stop-color:#fff;stop-opacity:0" id="stop5339" offset="1"/></linearGradient><linearGradient id="linearGradient5313"><stop id="stop5315" offset="0" style="stop-color:#99b8df;stop-opacity:1"/><stop style="stop-color:#3969a8;stop-opacity:1" id="stop5333" offset=".237"/><stop style="stop-color:#4f7eba;stop-opacity:1" id="stop5317" offset=".547"/><stop id="stop5321" offset=".746" style="stop-color:#96b6d7;stop-opacity:1"/><stop style="stop-color:#a0bddc;stop-opacity:1" id="stop5331" offset=".873"/><stop id="stop5319" offset="1" style="stop-color:#729fcf;stop-opacity:1"/></linearGradient><linearGradient id="linearGradient8152"><stop style="stop-color:#3465a4;stop-opacity:1" id="stop8154" offset="0"/><stop id="stop3174" offset=".5" style="stop-color:#4f7eba;stop-opacity:1"/><stop style="stop-color:#729fcf;stop-opacity:1" id="stop8156" offset="1"/></linearGradient><linearGradient id="linearGradient3207"><stop style="stop-color:#eeeeec;stop-opacity:.47058824" id="stop3209" offset="0"/><stop style="stop-color:#eeeeec;stop-opacity:0" id="stop3211" offset="1"/></linearGradient><linearGradient id="linearGradient2847"><stop style="stop-color:#3465a4;stop-opacity:1" id="stop2849" offset="0"/><stop style="stop-color:#3465a4;stop-opacity:0" id="stop2851" offset="1"/></linearGradient><linearGradient id="linearGradient2831"><stop style="stop-color:#3465a4;stop-opacity:1" id="stop2833" offset="0"/><stop id="stop2855" offset=".333" style="stop-color:#5b86be;stop-opacity:1"/><stop style="stop-color:#83a8d8;stop-opacity:0" id="stop2835" offset="1"/></linearGradient><linearGradient id="linearGradient8662"><stop style="stop-color:#000;stop-opacity:1" id="stop8664" offset="0"/><stop style="stop-color:#000;stop-opacity:0" id="stop8666" offset="1"/></linearGradient><linearGradient id="linearGradient1486" x1="13.479" x2="15.419" y1="10.612" y2="19.115" gradientTransform="matrix(1.0818662,0,0,1.1166851,-0.8207482,-1.8622434)" gradientUnits="userSpaceOnUse" xlink:href="#linearGradient2831"/><linearGradient id="linearGradient1488" x1="37.128" x2="37.403" y1="29.73" y2="26.801" gradientTransform="matrix(-1.0818662,0,0,-1.1166851,50.09459,49.644854)" gradientUnits="userSpaceOnUse" xlink:href="#linearGradient2847"/><radialGradient id="radialGradient1503" cx="24.837" cy="36.421" r="15.645" fx="24.837" fy="36.421" gradientTransform="matrix(1,0,0,0.536723,0,16.87306)" gradientUnits="userSpaceOnUse" xlink:href="#linearGradient8662"/><linearGradient id="linearGradient8158" x1="49.412" x2="11.881" y1="37.904" y2="19.776" gradientUnits="userSpaceOnUse" xlink:href="#linearGradient8152"/><linearGradient id="linearGradient8170" x1="13.479" x2="15.419" y1="10.612" y2="19.115" gradientTransform="matrix(-1.0818662,0,0,-1.1166851,48.639854,47.862243)" gradientUnits="userSpaceOnUse" xlink:href="#linearGradient2831"/><linearGradient id="linearGradient8172" x1="37.128" x2="37.403" y1="29.73" y2="26.801" gradientTransform="matrix(1.0818662,0,0,1.1166851,-2.2754847,-3.644854)" gradientUnits="userSpaceOnUse" xlink:href="#linearGradient2847"/><linearGradient id="linearGradient8174" x1="49.412" x2="11.881" y1="37.904" y2="19.776" gradientUnits="userSpaceOnUse" xlink:href="#linearGradient8152"/><linearGradient id="linearGradient8178" x1="5.893" x2="45.199" y1="20.541" y2="27.721" gradientUnits="userSpaceOnUse" xlink:href="#linearGradient3207"/><linearGradient id="linearGradient8180" x1="61.573" x2="10.969" y1="28.05" y2="20.334" gradientUnits="userSpaceOnUse" xlink:href="#linearGradient5313"/><linearGradient id="linearGradient5341" x1="8.688" x2="52.123" y1="25.266" y2="25.266" gradientUnits="userSpaceOnUse" xlink:href="#linearGradient5335"/></defs><metadata id="metadata4"/><g id="layer1"><path id="path8660" d="M 40.481863 36.421127 A 15.644737 8.3968935 0 1 1 9.1923885,36.421127 A 15.644737 8.3968935 0 1 1 40.481863 36.421127 z" transform="matrix(-1.5146484,0,0,-0.7917058,60.923237,69.528413)" style="opacity:.36111109;color:#000;fill:url(#radialGradient1503);fill-opacity:1;fill-rule:evenodd;stroke:none;stroke-width:1;stroke-linecap:butt;stroke-linejoin:miter;marker:none;marker-start:none;marker-mid:none;marker-end:none;stroke-miterlimit:10;stroke-dasharray:none;stroke-dashoffset:0;stroke-opacity:1;visibility:visible;display:inline;overflow:visible"/><path style="color:#000;fill:url(#linearGradient1486);fill-opacity:1;fill-rule:nonzero;stroke:url(#linearGradient1488);stroke-width:1.04300582000000008;stroke-linecap:butt;stroke-linejoin:miter;marker:none;marker-start:none;marker-mid:none;marker-end:none;stroke-miterlimit:4;stroke-dasharray:none;stroke-dashoffset:0;stroke-opacity:1;visibility:visible;display:block;overflow:visible;opacity:.51807229" id="path2865" d="M 20.478497,9.7711467 C 20.478497,9.7711467 12.632988,7.9438002 14.368023,21.024298 L 5.1028658,21.024298 C 5.1028658,21.024298 6.0085332,7.5377773 20.478497,9.7711467 z"/><g id="g1878" transform="matrix(-0.6129282,-0.5154381,-0.5178496,0.610074,58.686164,13.911361)" style="fill:url(#linearGradient8158);fill-opacity:1;stroke:#204a87;stroke-width:1.24932528;stroke-miterlimit:4;stroke-dasharray:none;stroke-opacity:1"><path id="path1880" d="M 45.862102,50.273522 C 62.924432,34.96305 47.150241,15.929711 22.760624,12.513943 L 22.113577,3.1522143 L 7.613534,20.510135 L 22.703188,33.23244 C 22.703188,33.23244 22.454828,23.347105 22.454828,23.347105 C 41.289895,24.339584 54.775794,35.675041 45.862102,50.273522 z" style="opacity:1;color:#000;fill:url(#linearGradient8180);fill-opacity:1;fill-rule:nonzero;stroke:#204a87;stroke-width:1.24977946000000006;stroke-linecap:butt;stroke-linejoin:miter;marker:none;marker-start:none;marker-mid:none;marker-end:none;stroke-miterlimit:4;stroke-dasharray:none;stroke-dashoffset:0;stroke-opacity:1;visibility:visible;display:block;overflow:visible"/></g><g style="fill:none;fill-opacity:1;stroke:url(#linearGradient5341);stroke-width:1.24928653000000001;stroke-miterlimit:4;stroke-dasharray:none;stroke-opacity:1;opacity:.54819277" id="g3185" transform="matrix(-0.612811,-0.5154406,-0.5177506,0.6100769,58.675633,13.911365)"><path style="opacity:1;color:#000;fill:none;fill-opacity:1;fill-rule:nonzero;stroke:url(#linearGradient5341);stroke-width:1.24928653000000001;stroke-linecap:butt;stroke-linejoin:miter;marker:none;marker-start:none;marker-mid:none;marker-end:none;stroke-miterlimit:4;stroke-dasharray:none;stroke-dashoffset:0;stroke-opacity:1;visibility:visible;display:block;overflow:visible" id="path3189" d="M 21.0625,6.3125 L 9.3125,20.34375 L 21.46875,30.59375 C 21.39688,27.754893 21.28125,23.375 21.28125,23.375 C 21.27502,23.044409 21.405774,22.725958 21.642519,22.495132 C 21.879264,22.264306 22.200923,22.141654 22.53125,22.15625 C 32.170255,22.667629 40.441027,25.773015 45.28125,30.875 C 48.676469,34.453835 50.102049,39.131532 49.125,44.21875 C 50.368339,42.205641 51.107893,40.194594 51.375,38.21875 C 51.870422,34.55401 50.856988,30.946652 48.5625,27.59375 C 43.973525,20.887947 34.236978,15.361613 22.3125,13.6875 C 21.732114,13.606381 21.295727,13.117098 21.28125,12.53125 L 21.0625,6.3125 z" transform="translate(1.0080026e-6,8.5223784e-7)"/></g><path id="path8160" d="M 27.340608,36.228853 C 27.340608,36.228853 35.186117,38.0562 33.451082,24.975702 L 42.71624,24.975702 C 42.71624,24.975702 41.810572,38.462223 27.340608,36.228853 z" style="color:#000;fill:url(#linearGradient8170);fill-opacity:1;fill-rule:nonzero;stroke:url(#linearGradient8172);stroke-width:1.04300582000000008;stroke-linecap:butt;stroke-linejoin:miter;marker:none;marker-start:none;marker-mid:none;marker-end:none;stroke-miterlimit:4;stroke-dasharray:none;stroke-dashoffset:0;stroke-opacity:1;visibility:visible;display:block;overflow:visible;opacity:.51807229"/><g style="fill:url(#linearGradient8174);fill-opacity:1;stroke:#204a87;stroke-width:1.24932528;stroke-miterlimit:4;stroke-dasharray:none;stroke-opacity:1" id="g8162" transform="matrix(0.6101332,0.5154999,0.5154881,-0.6101471,-10.618024,32.088556)"><path style="opacity:1;color:#000;fill:url(#linearGradient8180);fill-opacity:1;fill-rule:nonzero;stroke:#204a87;stroke-width:1.25256376;stroke-linecap:butt;stroke-linejoin:miter;marker:none;marker-start:none;marker-mid:none;marker-end:none;stroke-miterlimit:4;stroke-dasharray:none;stroke-dashoffset:0;stroke-opacity:1;visibility:visible;display:block;overflow:visible;enable-background:accumulate" id="path8164" d="M 45.862102,50.273522 C 62.924432,34.96305 47.150241,15.929711 22.760624,12.513943 L 22.113577,3.1522141 L 7.6135337,20.510135 L 22.703188,33.23244 C 22.703188,33.23244 22.454828,23.347105 22.454828,23.347105 C 41.289895,24.339584 54.775794,35.675041 45.862102,50.273522 z"/></g><g id="g8166" transform="matrix(0.6128107,0.5154406,0.5177504,-0.6100769,-10.856505,32.088635)" style="fill:none;fill-opacity:1;stroke:#204a87;stroke-width:1.24928653;stroke-miterlimit:4;stroke-dasharray:none;stroke-opacity:1"><path id="path8168" d="M 21.0625,6.3125 L 9.3125,20.34375 L 21.46875,30.59375 C 21.39688,27.754893 21.28125,23.375 21.28125,23.375 C 21.27502,23.044409 21.405774,22.725958 21.642519,22.495132 C 21.879264,22.264306 22.200923,22.141654 22.53125,22.15625 C 32.170255,22.667629 40.441027,25.773015 45.28125,30.875 C 48.676469,34.453835 50.102049,39.131532 49.125,44.21875 C 50.368339,42.205641 51.107893,40.194594 51.375,38.21875 C 51.870422,34.55401 50.856988,30.946652 48.5625,27.59375 C 43.973525,20.887947 34.236978,15.361613 22.3125,13.6875 C 21.732114,13.606381 21.295727,13.117098 21.28125,12.53125 L 21.0625,6.3125 z" transform="matrix(0.9972307,-2.4605589e-3,-2.4605593e-3,0.9980642,0.2457029,0.2077351)" style="opacity:1;color:#000;fill:none;fill-opacity:1;fill-rule:nonzero;stroke:url(#linearGradient8178);stroke-width:1.24973191;stroke-linecap:butt;stroke-linejoin:miter;marker:none;marker-start:none;marker-mid:none;marker-end:none;stroke-miterlimit:4;stroke-dasharray:none;stroke-dashoffset:0;stroke-opacity:.70588235;visibility:visible;display:block;overflow:visible"/></g></g></svg>