<svg xmlns="http://www.w3.org/2000/svg" xmlns:svg="http://www.w3.org/2000/svg" xmlns:xlink="http://www.w3.org/1999/xlink" id="svg2" width="512" height="512" version="1.0" viewBox="0 0 22 22"><metadata id="metadata58"/><defs id="defs4"><linearGradient id="linearGradient2878"><stop style="stop-color:#fee7b1;stop-opacity:1" id="stop2880" offset="0"/><stop style="stop-color:#ebd4b4;stop-opacity:1" id="stop2882" offset=".258"/><stop style="stop-color:#c8a775;stop-opacity:1" id="stop2884" offset=".508"/><stop style="stop-color:#b0935b;stop-opacity:1" id="stop2886" offset=".74"/><stop style="stop-color:#fcebbf;stop-opacity:1" id="stop2888" offset="1"/></linearGradient><linearGradient id="linearGradient2411"><stop id="stop2413" offset="0" style="stop-color:#fee7b1;stop-opacity:1"/><stop id="stop2419" offset=".258" style="stop-color:#ebd4b4;stop-opacity:1"/><stop id="stop2421" offset=".508" style="stop-color:#c8a775;stop-opacity:1"/><stop id="stop2423" offset=".74" style="stop-color:#b0935b;stop-opacity:1"/><stop id="stop2415" offset="1" style="stop-color:#fcebbf;stop-opacity:1"/></linearGradient><linearGradient id="linearGradient2576" x1="6.727" x2="40.938" y1="32.162" y2="32.162" gradientTransform="matrix(0.4857987,0,0,0.5667573,-0.657656,-4.7557638)" gradientUnits="userSpaceOnUse" xlink:href="#linearGradient2411"/><linearGradient id="linearGradient9845"><stop id="stop9847" offset="0" style="stop-color:white;stop-opacity:1"/><stop id="stop9849" offset="1" style="stop-color:white;stop-opacity:.49484536"/></linearGradient><linearGradient id="linearGradient2573" x1="10.907" x2="30.875" y1="25.002" y2="36.127" gradientTransform="matrix(0.4541292,0,0,0.5078849,0.107594,-1.9931168)" gradientUnits="userSpaceOnUse" xlink:href="#linearGradient9845"/><linearGradient id="linearGradient5881"><stop id="stop5883" offset="0" style="stop-color:#d6c8a7;stop-opacity:1"/><stop id="stop5885" offset="1" style="stop-color:#d0bd99;stop-opacity:1"/></linearGradient><linearGradient id="linearGradient2570" x1="24.875" x2="24.75" y1="21" y2="17" gradientTransform="matrix(0.4705882,0,0,0.807484,-0.294082,-6.1887078)" gradientUnits="userSpaceOnUse" xlink:href="#linearGradient5881"/><linearGradient id="linearGradient12071"><stop id="stop12073" offset="0" style="stop-color:white;stop-opacity:1"/><stop id="stop12075" offset="1" style="stop-color:white;stop-opacity:0"/></linearGradient><linearGradient id="linearGradient2567" x1="21.942" x2="21.942" y1="21.551" y2="18.038" gradientTransform="matrix(0.4545455,0,0,0.2515938,0.090945,5.0971072)" gradientUnits="userSpaceOnUse" xlink:href="#linearGradient12071"/><filter id="filter5957" width="1.988" height="1.165" x="-.494" y="-.082" color-interpolation-filters="sRGB"><feGaussianBlur id="feGaussianBlur5959" stdDeviation=".699"/></filter><radialGradient id="radialGradient2563" cx="15.938" cy="20.313" r="3.313" fx="15.938" fy="20.313" gradientTransform="matrix(0.7547171,0,0,0.3566673,-5.528266,1.0326108)" gradientUnits="userSpaceOnUse" xlink:href="#linearGradient6075"/><linearGradient id="linearGradient6075"><stop id="stop6077" offset="0" style="stop-color:black;stop-opacity:1"/><stop id="stop6079" offset="1" style="stop-color:black;stop-opacity:0"/></linearGradient><radialGradient id="radialGradient2560" cx="15.938" cy="20.313" r="3.313" fx="15.938" fy="20.313" gradientTransform="matrix(0.7547175,0,0,0.3566673,3.471729,1.0326108)" gradientUnits="userSpaceOnUse" xlink:href="#linearGradient6075"/><linearGradient id="linearGradient10591"><stop id="stop10593" offset="0" style="stop-color:#cad0c6;stop-opacity:1"/><stop id="stop10599" offset=".5" style="stop-color:#eaece9;stop-opacity:1"/><stop id="stop10595" offset="1" style="stop-color:#c5cbc0;stop-opacity:1"/></linearGradient><linearGradient id="linearGradient2557" x1="10.651" x2="27.192" y1="2.914" y2="17.47" gradientTransform="matrix(0.4093677,0,0,0.4456702,1.146515,-1.679622)" gradientUnits="userSpaceOnUse" xlink:href="#linearGradient10591"/><linearGradient id="linearGradient2580" x1="35.005" x2="33.004" y1="14.85" y2="14.85" gradientTransform="translate(1.6824037,1.125)" gradientUnits="userSpaceOnUse" xlink:href="#linearGradient6227"/><filter id="filter6251" width="1.485" height="1.095" x="-.242" y="-.048" color-interpolation-filters="sRGB"><feGaussianBlur id="feGaussianBlur6253" stdDeviation=".244"/></filter><linearGradient id="linearGradient6227"><stop id="stop6229" offset="0" style="stop-color:black;stop-opacity:1"/><stop id="stop6231" offset="1" style="stop-color:black;stop-opacity:0"/></linearGradient><linearGradient id="linearGradient2578" x1="32.128" x2="35.021" y1="13.789" y2="13.789" gradientTransform="translate(-19.532826,1.7437184)" gradientUnits="userSpaceOnUse" xlink:href="#linearGradient6227"/><filter id="filter5745" color-interpolation-filters="sRGB"><feGaussianBlur id="feGaussianBlur5747" stdDeviation=".836"/></filter><linearGradient id="linearGradient3667" x1="6.727" x2="40.938" y1="32.162" y2="32.162" gradientTransform="matrix(0.4857987,0,0,0.5667573,-0.657656,-4.7557638)" gradientUnits="userSpaceOnUse" xlink:href="#linearGradient2411"/><linearGradient id="linearGradient3669" x1="10.907" x2="30.875" y1="25.002" y2="36.127" gradientTransform="matrix(0.4541292,0,0,0.5078849,0.107594,-1.9931168)" gradientUnits="userSpaceOnUse" xlink:href="#linearGradient9845"/><linearGradient id="linearGradient3671" x1="24.875" x2="24.75" y1="21" y2="17" gradientTransform="matrix(0.4705882,0,0,0.807484,-0.294082,-6.1887078)" gradientUnits="userSpaceOnUse" xlink:href="#linearGradient5881"/><linearGradient id="linearGradient3673" x1="21.942" x2="21.942" y1="21.551" y2="18.038" gradientTransform="matrix(0.4545455,0,0,0.2515938,0.090945,5.0971072)" gradientUnits="userSpaceOnUse" xlink:href="#linearGradient12071"/><radialGradient id="radialGradient3675" cx="15.938" cy="20.313" r="3.313" fx="15.938" fy="20.313" gradientTransform="matrix(0.7547171,0,0,0.3566673,-5.528266,1.0326108)" gradientUnits="userSpaceOnUse" xlink:href="#linearGradient6075"/><radialGradient id="radialGradient3677" cx="15.938" cy="20.313" r="3.313" fx="15.938" fy="20.313" gradientTransform="matrix(0.7547175,0,0,0.3566673,3.471729,1.0326108)" gradientUnits="userSpaceOnUse" xlink:href="#linearGradient6075"/><linearGradient id="linearGradient3679" x1="10.651" x2="27.192" y1="2.914" y2="17.47" gradientTransform="matrix(0.4093677,0,0,0.4456702,1.146515,-1.679622)" gradientUnits="userSpaceOnUse" xlink:href="#linearGradient10591"/><linearGradient id="linearGradient3681" x1="35.005" x2="33.004" y1="14.85" y2="14.85" gradientTransform="translate(1.6824037,1.125)" gradientUnits="userSpaceOnUse" xlink:href="#linearGradient6227"/><linearGradient id="linearGradient3683" x1="32.128" x2="35.021" y1="13.789" y2="13.789" gradientTransform="translate(-19.532826,1.7437184)" gradientUnits="userSpaceOnUse" xlink:href="#linearGradient6227"/><linearGradient id="linearGradient3689" x1="10.651" x2="27.192" y1="2.914" y2="17.47" gradientTransform="matrix(0.4093677,0,0,0.4456702,1.146515,-1.679622)" gradientUnits="userSpaceOnUse" xlink:href="#linearGradient10591"/><radialGradient id="radialGradient3692" cx="15.938" cy="20.313" r="3.313" fx="15.938" fy="20.313" gradientTransform="matrix(0.7547175,0,0,0.3566673,3.471729,1.0326108)" gradientUnits="userSpaceOnUse" xlink:href="#linearGradient6075"/><radialGradient id="radialGradient3695" cx="15.938" cy="20.313" r="3.313" fx="15.938" fy="20.313" gradientTransform="matrix(0.7547171,0,0,0.3566673,-5.6214863,3.3122718)" gradientUnits="userSpaceOnUse" xlink:href="#linearGradient6227"/><linearGradient id="linearGradient3699" x1="21.942" x2="21.942" y1="21.551" y2="18.038" gradientTransform="matrix(0.44073238,0,0,0.25417737,0.56229035,5.7925232)" gradientUnits="userSpaceOnUse" xlink:href="#linearGradient12071"/><linearGradient id="linearGradient3702" x1="24.875" x2="24.75" y1="21" y2="17" gradientTransform="matrix(0.4705882,0,0,0.807484,-0.294082,-4.1887078)" gradientUnits="userSpaceOnUse" xlink:href="#linearGradient5881"/><linearGradient id="linearGradient3705" x1="10.907" x2="30.875" y1="25.002" y2="36.127" gradientTransform="matrix(0.45863789,0,0,0.36426137,-5.4795525e-4,4.4421178)" gradientUnits="userSpaceOnUse" xlink:href="#linearGradient9845"/><linearGradient id="linearGradient3708" x1="6.727" x2="40.938" y1="32.162" y2="32.162" gradientTransform="matrix(0.48797453,0,0,0.48157871,-0.70986972,-0.77168479)" gradientUnits="userSpaceOnUse" xlink:href="#linearGradient2878"/></defs><path style="fill:url(#linearGradient3708);fill-opacity:1;fill-rule:evenodd;stroke:#a2824e;stroke-width:.92385811;stroke-linecap:round;stroke-linejoin:round;stroke-miterlimit:4;stroke-opacity:1;stroke-dashoffset:0" id="rect1314" d="m 3.5525753,9.2187869 c 4.9196374,-0.6152207 9.8916207,-0.51971 14.8948487,0 0.6042,0 1.090611,0.4448013 1.090611,0.9973131 l 0,9.939823 c 0,0.552512 -0.517804,0.917395 -1.090611,0.997313 -5.187173,0.515144 -9.6348246,0.511078 -14.8948487,0 -0.6983761,-0.186475 -1.09061,-0.444801 -1.09061,-0.997313 l 0,-9.939823 c 0,-0.5525118 0.4864119,-0.9973131 1.09061,-0.9973131 z"/><path style="opacity:.37999998;fill:none;stroke:url(#linearGradient3705);stroke-width:.85107791;stroke-linecap:round;stroke-linejoin:round;stroke-miterlimit:4;stroke-opacity:.60109289;stroke-dashoffset:0" id="rect6903" d="m 4.0170604,11.967913 13.9659496,0 c 0.327683,0 0.591486,0.191031 0.591486,0.428321 l 0,7.45603 c 0,0.237289 -0.234219,0.346838 -0.591486,0.428321 -4.566563,0.392289 -9.0739612,0.391381 -13.9659496,0 -0.3276833,-0.08148 -0.5914856,-0.191032 -0.5914856,-0.428321 l 0,-7.45603 c 0,-0.23729 0.2638023,-0.428321 0.5914856,-0.428321 z"/><path style="fill:url(#linearGradient3702);fill-opacity:1;fill-rule:evenodd;stroke:none;stroke-width:2;marker:none;visibility:visible;display:inline;overflow:visible" id="rect1460" d="m 3.779465,9.53852 c 4.8137134,-0.786353 9.627427,-0.646293 14.441141,0 0.431803,0 0.77943,0.386003 0.77943,0.865475 l 0,1.498987 c 0,0.479473 -0.347627,0.865476 -0.77943,0.865476 -5.023394,0.371496 -9.6453579,0.238912 -14.441141,0 -0.431804,0 -0.779429,-0.386003 -0.779429,-0.865476 l 0,-1.498987 c 0,-0.479472 0.347625,-0.865475 0.779429,-0.865475 z"/><path style="opacity:.6;fill:none;stroke:url(#linearGradient3699);stroke-width:.98973131;stroke-linecap:round;stroke-linejoin:round;stroke-miterlimit:4;stroke-opacity:1;stroke-dashoffset:0;marker:none;visibility:visible;display:inline;overflow:visible" id="rect1593" d="m 4.3967475,10.240628 13.4862385,0 c 0.293046,0 0.528964,0.130622 0.528964,0.292876 l 0,0.176782 c 0,0.162253 -0.235918,0.292875 -0.528964,0.292875 -4.453462,0.320436 -8.95723,0.340047 -13.4862385,0 -0.2930466,0 -0.5289646,-0.130622 -0.5289646,-0.292875 l 0,-0.176782 c 0,-0.162254 0.235918,-0.292876 0.5289646,-0.292876 z"/><rect style="opacity:.2;fill:#fff;fill-opacity:1;fill-rule:evenodd;stroke:none;stroke-width:1;marker:none;visibility:visible;display:inline;overflow:visible;filter:url(#filter5957);enable-background:accumulate" id="rect5887" width="2.828" height="16.971" x="14.594" y="23.226" rx="1.608" ry="1.608" transform="matrix(0.923405,0,0,0.5777374,-8.226979,-3.3564678)"/><path style="fill:url(#radialGradient3695);fill-opacity:1;fill-rule:evenodd;stroke:none;stroke-width:1;marker:none;visibility:visible;display:inline;overflow:visible;enable-background:accumulate;opacity:.39084507" id="path6073" d="m 8.9068156,10.557078 c 0,0.652503 -1.1192909,1.18146 -2.4999999,1.18146 -1.380712,0 -2.5,-0.528957 -2.5,-1.18146 0,-0.652504 1.119288,-1.181462 2.5,-1.181462 1.380709,0 2.4999999,0.528958 2.4999999,1.181462 z"/><path style="opacity:.3;fill:url(#radialGradient3692);fill-opacity:1;fill-rule:evenodd;stroke:none;stroke-width:1;marker:none;visibility:visible;display:inline;overflow:visible;enable-background:accumulate" id="path6083" d="m 18.000036,8.2774169 c 0,0.6525027 -1.119288,1.1814597 -2.500001,1.1814597 -1.380712,0 -2.499999,-0.528957 -2.499999,-1.1814597 0,-0.6525037 1.119287,-1.1814615 2.499999,-1.1814615 1.380713,0 2.500001,0.5289578 2.500001,1.1814615 z"/><path style="fill:url(#linearGradient3689);fill-opacity:1;fill-rule:evenodd;stroke:#888a85;stroke-width:.99999946;stroke-linecap:butt;stroke-linejoin:miter;stroke-miterlimit:4;stroke-opacity:1;stroke-dasharray:none" id="path2086" d="m 5.502269,6.0528644 0,-0.8778838 c 0,-3.5074844 2.152214,-4.70768169 5.477269,-4.6638788 3.343147,0.0438029 5.518265,1.5812319 5.518265,5.1299805 l 0,4.4384537 c 0,0.870942 -2.247715,0.795349 -2.247715,-0.1864406 l 0,-3.3606729 c 0,-0.8913402 0.232705,-3.7756533 -3.247128,-3.7756533 -3.45114,0 -3.19968,1.5037828 -3.186298,2.3737944 l 0,0.8440898 c 0,1.0493847 -2.314393,1.1381429 -2.314393,0.078211 z"/><path style="opacity:.18235294;fill:url(#linearGradient3681);fill-opacity:1;fill-rule:evenodd;stroke:none;filter:url(#filter6251)" id="rect1345" d="m 34.687087,10.837069 1.263948,0.125 c 0.927239,2.822733 0.736052,9.510413 0.736052,9.510413 -0.0625,1.125 -2.03125,0.53125 -2,0 l 0,-9.635413 z" transform="matrix(0.4093677,0,0,0.6166619,1.146515,-2.5738691)"/><path style="opacity:.14117647;fill:url(#linearGradient3683);fill-opacity:1;fill-rule:evenodd;stroke:none;filter:url(#filter6251)" id="path6332" d="m 12.926606,11.544175 0.371719,0.169195 c 1.720331,1.054966 2.173532,9.37783 2.173532,9.37783 -0.0625,1.125 -2.03125,0.53125 -2,0 0,0 0.37822,-6.87064 -0.545251,-9.547025 z" transform="matrix(-0.4093677,0,0,0.27334831,13.04224,0.79133801)"/><path style="opacity:.62352941;fill:none;stroke:#fff;stroke-width:4.42126894;stroke-linecap:round;stroke-linejoin:miter;stroke-miterlimit:4;stroke-opacity:1;stroke-dasharray:none;stroke-dashoffset:0;marker:none;visibility:visible;display:inline;overflow:visible;filter:url(#filter5745);enable-background:accumulate" id="path5675" d="m 13.876557,13.120408 0.124999,-3.5257925 c 0,-9.87637282 18.6875,-10.0488935 18.6875,1.5025065 l -0.406058,11.058377" transform="matrix(0.459148,0,0,0.4456703,0.5376645,0.33942804)"/></svg>